<!--?xml version="1.0" standalone="no"?--><svg version="1.0" xmlns="http://www.w3.org/2000/svg" width="279.000000pt" height="300.000000pt" viewBox="0 0 279.000000 300.000000" preserveAspectRatio="xMidYMid meet">
<metadata>
  <rdf:rdf xmlns:rdf="http://www.w3.org/1999/02/22-rdf-syntax-ns#" xmlns:rdfs="http://www.w3.org/2000/01/rdf-schema#" xmlns:dc="http://purl.org/dc/elements/1.1/">
    <rdf:description dc:title="woman chef" dc:publisher="Hiox" dc:date="2015-04-21" dc:format="image/svg+xml" dc:language="en">
      <dc:creator>
        <rdf:bag>
          <rdf:li>svgimages.com</rdf:li>
        </rdf:bag>
      </dc:creator>
    </rdf:description>
  </rdf:rdf>
</metadata>
<g transform="translate(0.000000,300.000000) scale(0.100000,-0.100000)" fill="#FF0E0E" stroke="none">
<path d="M855 2986 c-166 -29 -268 -64 -389 -135 -99 -57 -211 -168 -250 -246
-33 -66 -45 -165 -27 -231 24 -88 130 -167 244 -180 l57 -7 0 -416 c0 -241 5
-443 11 -480 12 -74 38 -140 90 -226 62 -103 77 -178 39 -190 -25 -8 -81 9
-138 42 -24 14 -45 23 -47 21 -8 -7 16 -100 34 -137 19 -36 55 -72 84 -85 8
-3 6 -9 -7 -17 -10 -6 -36 -27 -56 -45 -47 -42 -98 -64 -150 -64 -34 0 -40 -3
-40 -21 0 -20 3 -21 63 -14 73 9 99 21 163 76 56 48 81 59 139 59 61 0 87 -12
188 -87 69 -52 85 -68 73 -75 -18 -10 -55 6 -136 57 -64 41 -82 43 -111 14
-18 -18 -21 -30 -17 -81 5 -71 22 -89 106 -114 45 -13 63 -14 121 -3 38 6 77
9 88 5 16 -7 15 -9 -9 -28 -35 -25 -35 -41 -1 -57 l27 -12 -30 -20 c-16 -10
-35 -19 -41 -19 -15 0 -17 -26 -3 -35 23 -14 6 -23 -54 -30 -53 -5 -65 -10
-69 -27 -5 -19 -11 -20 -81 -16 -104 7 -190 49 -249 123 -23 29 -54 59 -68 65
-38 16 -93 9 -97 -12 -3 -15 4 -18 42 -18 43 0 47 -2 86 -54 52 -71 143 -124
238 -138 82 -13 157 -4 179 22 9 11 20 17 24 15 3 -3 30 2 59 11 49 15 52 17
47 43 -5 23 -1 30 24 45 31 18 36 35 18 69 -8 13 -8 22 -2 24 6 2 19 10 29 18
18 15 18 16 -3 34 -29 24 -29 33 -1 29 15 -2 25 -15 35 -43 24 -72 80 -101
146 -76 16 6 34 30 52 66 30 64 54 70 69 17 31 -108 142 -110 191 -3 18 40 34
48 69 35 9 -3 16 -13 16 -22 0 -28 44 -81 72 -87 41 -9 85 19 111 71 18 37 26
44 46 42 19 -2 27 -11 33 -38 12 -48 51 -82 86 -74 32 8 78 48 98 87 l15 28
165 -2 c91 -1 168 1 171 5 3 3 -3 6 -15 6 -11 0 -24 4 -27 10 -4 6 -63 10
-144 10 l-138 0 -1 46 c-1 124 -122 125 -187 2 -16 -32 -25 -38 -52 -38 -31 0
-33 2 -33 34 0 25 -9 44 -34 70 -37 39 -53 43 -94 22 -28 -15 -72 -82 -72
-110 0 -13 -8 -17 -32 -14 -31 3 -33 6 -39 45 -12 93 -95 124 -157 60 -18 -19
-37 -50 -43 -70 -8 -29 -15 -37 -34 -37 -18 0 -25 7 -30 28 -3 16 -19 45 -36
65 -25 31 -37 37 -69 37 -29 0 -45 -7 -68 -31 -17 -18 -34 -45 -37 -60 -6 -27
-10 -29 -58 -29 -50 0 -51 0 -29 16 18 12 20 19 12 30 -27 31 -208 162 -243
175 l-37 13 50 48 c28 26 53 48 56 48 3 0 33 -20 67 -44 84 -59 131 -81 202
-96 121 -25 232 7 334 97 45 39 50 41 56 24 3 -11 24 -36 45 -55 35 -31 47
-36 90 -36 63 0 107 36 133 108 26 74 21 117 -10 87 -7 -8 -32 -20 -53 -26
-43 -13 -70 -2 -70 30 0 31 31 136 51 175 42 81 49 164 56 668 5 417 8 478 21
473 8 -3 47 -8 86 -11 60 -5 76 -2 104 15 17 11 32 28 32 36 0 8 4 15 9 15 9
0 29 67 34 115 2 29 3 29 29 -21 67 -127 68 -138 68 -538 0 -345 -1 -364 -18
-359 -14 3 -26 -12 -55 -71 -30 -62 -49 -85 -109 -134 -161 -131 -171 -274
-31 -424 47 -52 48 -57 16 -146 -12 -34 -13 -46 -3 -55 24 -25 60 59 60 141 0
37 -6 50 -43 90 -64 69 -87 115 -87 172 0 68 31 119 123 202 43 39 86 86 95
106 20 40 36 46 40 15 4 -24 -26 -86 -69 -146 -35 -49 -37 -77 -5 -114 41 -47
120 -32 183 35 26 28 29 63 12 141 -6 27 -9 63 -7 78 l3 28 23 -38 c27 -46 42
-40 43 16 l1 42 14 -32 c16 -37 43 -44 51 -13 8 30 19 24 31 -17 25 -81 80
-111 83 -46 1 19 4 13 9 -17 17 -104 -17 -216 -85 -284 -34 -35 -134 -98 -173
-110 -37 -12 -80 -72 -88 -122 -8 -58 1 -203 14 -216 25 -25 33 4 27 91 -13
155 5 185 150 254 50 24 129 102 160 159 27 49 30 62 33 173 2 71 -1 132 -7
148 -11 28 -11 28 -35 10 -14 -10 -29 -27 -34 -38 -8 -17 -10 -15 -22 20 -18
55 -28 66 -57 59 -18 -5 -28 -1 -39 15 -19 27 -36 27 -53 -1 l-13 -21 -19 24
c-17 22 -19 47 -19 335 0 179 5 335 11 370 13 70 49 138 135 252 117 155 146
253 110 374 -55 189 -349 265 -494 128 -38 -36 -82 -122 -82 -159 l0 -25 -19
21 c-105 112 -255 182 -501 234 -81 17 -436 20 -525 5z m474 -96 c288 -47 509
-174 580 -335 41 -92 18 -211 -44 -232 -39 -13 -122 -5 -163 16 -23 12 -46 21
-52 21 -7 0 -10 -99 -10 -300 l0 -300 -500 0 -500 0 0 330 c0 182 -4 330 -8
330 -5 0 -20 -13 -35 -28 -75 -78 -194 -95 -254 -36 -81 78 -67 210 32 308 54
53 183 132 284 174 173 72 423 92 670 52z m922 -12 c55 -19 88 -49 116 -105
22 -46 25 -63 21 -121 -6 -85 -31 -134 -108 -212 -43 -43 -63 -74 -74 -108
l-14 -47 -22 50 c-13 28 -51 84 -85 125 -80 96 -105 148 -105 217 0 149 135
248 271 201z m-860 -1316 c10 -13 44 -42 76 -64 102 -72 110 -83 124 -161 38
-228 -101 -517 -286 -597 -201 -86 -488 93 -602 376 -23 57 -28 84 -28 154 0
77 3 90 31 135 44 72 71 84 205 91 66 4 142 14 179 25 66 20 172 81 225 132
l30 27 14 -47 c7 -27 22 -59 32 -71z m747 -408 c15 -11 14 -14 -12 -24 -60
-22 -96 21 -57 69 12 14 27 37 34 51 11 23 12 21 15 -30 2 -36 9 -58 20 -66z
m-1334 -618 l68 -45 -43 -3 c-35 -2 -44 -7 -49 -25 l-5 -22 -32 20 c-29 18
-33 26 -33 63 0 40 6 56 19 56 3 0 37 -20 75 -44z m1254 32 c7 -7 12 -29 12
-50 0 -32 -4 -40 -25 -48 -27 -10 -33 -26 -12 -33 9 -3 9 -7 -1 -20 -37 -45
-92 -21 -92 40 0 79 77 152 118 111z m-820 -25 c31 -27 32 -55 2 -63 -33 -8
-39 -37 -8 -42 32 -4 34 -33 4 -53 -33 -22 -62 -12 -87 28 -26 43 -24 74 7
114 28 37 52 41 82 16z m276 1 c24 -24 21 -62 -6 -66 -30 -4 -35 -34 -8 -41
18 -5 20 -9 10 -26 -11 -22 -52 -37 -70 -26 -5 3 -17 20 -26 36 -16 33 -10 68
21 116 18 27 56 30 79 7z m264 -6 c5 -7 12 -23 16 -34 5 -17 2 -23 -15 -27
-17 -5 -20 -11 -14 -35 5 -25 3 -31 -15 -37 -45 -14 -72 48 -46 109 11 27 21
36 39 36 14 0 29 -6 35 -12z" id="node1" class="node"></path>
<path d="M2180 2637 c0 -215 8 -291 23 -219 4 15 25 48 49 73 67 72 76 88 88
146 23 108 -33 212 -122 228 l-38 7 0 -235z" id="node2" class="node"></path>
<path d="M876 1444 c-53 -19 -53 -21 -3 -21 47 -1 133 -27 158 -49 23 -20 31
-6 12 23 -18 27 -82 63 -110 62 -10 0 -36 -7 -57 -15z" id="node3" class="node"></path>
<path d="M1308 1437 c-60 -35 -54 -48 10 -26 40 15 72 19 107 15 l50 -5 -39
19 c-50 25 -82 25 -128 -3z" id="node4" class="node"></path>
<path d="M720 1355 c0 -29 27 -80 59 -109 l31 -30 0 32 c0 30 2 32 38 32 20 0
47 -3 58 -6 21 -6 21 -6 -3 -30 -34 -34 -27 -58 17 -62 29 -2 41 3 65 28 l29
30 33 -32 33 -32 0 32 c0 41 -16 73 -48 97 -23 17 -43 20 -139 20 -102 0 -113
2 -135 23 -28 26 -38 28 -38 7z" id="node5" class="node"></path>
<path d="M1420 1341 c-114 -8 -160 -43 -160 -119 l0 -27 19 30 c19 31 61 65
82 65 6 0 -1 -14 -16 -32 -26 -30 -26 -31 -7 -50 15 -16 23 -17 48 -8 36 14
74 49 74 67 0 8 5 11 10 8 6 -3 10 -15 10 -26 0 -16 8 -9 35 26 31 40 34 48
21 60 -8 8 -18 14 -23 13 -4 0 -46 -4 -93 -7z" id="node6" class="node"></path>
<path d="M1207 1114 c5 -39 3 -42 -32 -63 -21 -12 -35 -24 -33 -27 10 -10 93
15 105 32 18 25 17 29 -16 66 l-30 33 6 -41z" id="node7" class="node"></path>
<path d="M1240 938 c-30 -5 -90 -7 -132 -5 -88 6 -93 1 -53 -53 57 -77 129
-92 190 -38 41 35 84 109 63 107 -7 -1 -38 -6 -68 -11z m-39 -68 c-29 -25 -39
-25 -71 0 l-25 20 60 -1 60 0 -24 -19z" id="node8" class="node"></path>

<path d="M2427 1252 c-3 -4 -10 -23 -16 -43 -16 -49 -54 -82 -136 -117 -38
-16 -77 -32 -85 -36 -54 -24 -110 -71 -110 -92 0 -27 23 -25 53 3 41 38 73 57
122 73 46 15 121 55 149 79 23 20 56 84 56 110 0 19 -26 37 -33 23z" id="node10" class="node"></path>
</g>
<g transform="translate(0.000000,300.000000) scale(0.100000,-0.100000)" fill="#FFFFFF" stroke="none">

<path d="M815 2885 c-240 -56 -468 -200 -509 -321 -29 -85 -16 -157 37 -208
60 -59 179 -42 254 36 15 15 30 28 35 28 4 0 8 -148 8 -330 l0 -330 500 0 500
0 0 300 c0 201 3 300 10 300 6 0 29 -9 52 -21 41 -21 124 -29 163 -16 37 13
65 68 65 129 0 159 -151 303 -415 396 -178 63 -515 81 -700 37z" id="node12" class="node"></path>
<path d="M2104 2876 c-107 -47 -155 -187 -103 -297 12 -24 50 -78 84 -119 34
-41 72 -97 85 -125 l22 -50 14 47 c11 34 31 65 74 108 77 78 102 127 108 212
4 58 1 75 -21 121 -15 29 -39 62 -54 73 -59 44 -148 56 -209 30z m188 -53 c48
-47 64 -109 48 -186 -12 -58 -21 -74 -88 -146 -24 -25 -45 -58 -49 -73 -15
-72 -23 4 -23 219 l0 235 38 -7 c23 -4 51 -20 74 -42z" id="node13" class="node"></path>
<path d="M1315 1653 c-53 -51 -159 -112 -225 -132 -37 -11 -113 -21 -179 -25
-134 -7 -161 -19 -205 -91 -28 -45 -31 -58 -31 -135 0 -70 5 -97 28 -154 114
-283 401 -462 602 -376 185 80 324 369 286 597 -14 78 -22 89 -124 161 -71 50
-91 74 -108 135 l-14 47 -30 -27z m-326 -212 c38 -20 75 -63 64 -75 -4 -3 -13
0 -22 8 -25 22 -111 48 -158 49 -50 0 -50 2 3 21 53 20 69 19 113 -3z m447 -1
l39 -19 -50 5 c-35 4 -67 0 -107 -15 -64 -22 -70 -9 -10 26 46 28 78 28 128 3z
m-678 -92 c22 -21 33 -23 135 -23 96 0 116 -3 139 -20 32 -24 48 -56 48 -97
l0 -32 -33 32 -33 32 -29 -30 c-24 -25 -36 -30 -65 -28 -44 4 -51 28 -17 62
24 24 24 24 3 30 -11 3 -38 6 -58 6 -36 0 -38 -2 -38 -32 l0 -32 -31 30 c-32
29 -59 80 -59 109 0 21 10 19 38 -7z m778 -13 c13 -12 10 -20 -21 -60 -27 -35
-35 -42 -35 -26 0 11 -4 23 -10 26 -5 3 -10 0 -10 -8 0 -18 -38 -53 -74 -67
-25 -9 -33 -8 -48 8 -19 19 -19 20 7 50 15 18 22 32 16 32 -21 0 -63 -34 -82
-65 l-19 -30 0 27 c0 76 46 111 160 119 47 3 89 7 93 7 5 1 15 -5 23 -13z
m-276 -253 c0 -21 -30 -44 -69 -53 -57 -13 -62 -5 -16 22 35 21 37 24 32 63
l-6 41 30 -33 c16 -18 29 -36 29 -40z m41 -170 c-62 -121 -170 -135 -246 -32
-40 54 -35 59 53 53 42 -2 102 0 132 5 85 15 83 16 61 -26z" id="node14" class="node"></path>
<path d="M1130 870 c32 -25 42 -25 71 0 l24 19 -60 0 -60 1 25 -20z" id="node15" class="node"></path>
<path d="M2103 1250 c-7 -14 -22 -37 -34 -51 -39 -48 -3 -91 57 -69 26 10 27
13 12 24 -11 8 -18 30 -20 66 -3 51 -4 53 -15 30z" id="node16" class="node"></path>
<path d="M717 573 c-4 -3 -7 -25 -7 -49 0 -37 4 -45 33 -63 l32 -20 5 22 c5
18 14 23 49 25 l43 3 -68 45 c-73 46 -77 48 -87 37z" id="node17" class="node"></path>
<path d="M1992 564 c-50 -35 -69 -125 -33 -158 22 -20 51 -15 73 11 10 13 10
17 1 20 -21 7 -15 23 12 33 21 8 25 16 25 48 0 59 -32 79 -78 46z" id="node18" class="node"></path>
<path d="M1156 527 c-31 -40 -33 -71 -7 -114 25 -40 54 -50 87 -28 30 20 28
49 -4 53 -31 5 -25 34 8 42 30 8 29 36 -2 63 -30 25 -54 21 -82 -16z" id="node19" class="node"></path>
<path d="M1435 537 c-31 -48 -37 -83 -21 -116 9 -16 21 -33 26 -36 18 -11 59
4 70 26 10 17 8 21 -10 26 -27 7 -22 37 8 41 16 2 22 10 22 27 0 52 -67 75
-95 32z" id="node20" class="node"></path>
<path d="M1704 514 c-26 -61 1 -123 46 -109 18 6 20 12 15 37 -6 24 -3 30 14
35 17 4 20 10 15 27 -10 33 -24 46 -51 46 -18 0 -28 -9 -39 -36z" id="node21" class="node"></path>
</g>
</svg>